<?xml version="1.0" standalone="no"?>
<!DOCTYPE svg PUBLIC "-//W3C//DTD SVG 20010904//EN"
 "http://www.w3.org/TR/2001/REC-SVG-20010904/DTD/svg10.dtd">
<svg version="1.0" xmlns="http://www.w3.org/2000/svg"
 width="592.000000pt" height="592.000000pt" viewBox="0 0 592.000000 592.000000"
 preserveAspectRatio="xMidYMid meet">
<metadata>
Created by potrace 1.14, written by Peter Selinger 2001-2017
</metadata>
<g transform="translate(0.000000,592.000000) scale(0.100000,-0.100000)"
fill="#000000" stroke="none">
<path d="M2979 5916 c-2 -2 -33 -7 -69 -10 -36 -4 -94 -11 -130 -17 -36 -6
-74 -12 -85 -14 -50 -7 -107 -19 -195 -42 -52 -14 -99 -26 -105 -27 -8 -2 -83
-25 -135 -41 -6 -2 -21 -8 -125 -48 -105 -40 -310 -137 -388 -183 -89 -53
-218 -135 -248 -159 -15 -11 -39 -29 -55 -40 -133 -95 -376 -323 -490 -459
-27 -32 -55 -65 -62 -72 -6 -7 -12 -17 -12 -22 0 -6 -4 -12 -9 -14 -10 -4
-127 -165 -167 -231 -57 -96 -67 -114 -129 -232 -59 -116 -143 -311 -172 -405
-31 -99 -65 -216 -69 -240 -3 -14 -12 -54 -20 -89 -12 -52 -14 -166 -14 -621
0 -344 5 -570 11 -591 5 -19 14 -52 19 -74 15 -70 19 -87 36 -144 65 -228 186
-508 296 -684 26 -43 48 -80 48 -83 0 -12 190 -269 254 -343 46 -54 287 -293
336 -334 26 -22 169 -130 245 -185 124 -89 391 -231 570 -302 121 -48 315
-110 425 -135 89 -20 185 -37 280 -51 189 -26 677 -26 805 0 11 3 37 5 59 5
31 1 37 4 32 17 -5 13 -3 14 6 6 7 -5 27 -8 43 -6 17 3 43 6 58 8 15 2 38 12
50 22 21 19 21 19 7 0 -14 -18 -13 -19 5 -12 11 5 26 9 33 9 6 0 12 3 12 6 0
3 14 7 31 8 17 1 37 7 44 13 6 5 14 7 17 5 3 -3 18 -1 34 6 16 6 36 12 45 14
38 8 99 29 99 34 0 3 12 7 26 8 15 0 36 6 48 11 20 10 56 24 66 26 3 1 15 7
26 14 12 6 24 9 27 5 4 -3 9 2 13 11 3 9 10 13 15 10 5 -2 19 1 31 8 13 7 26
11 31 10 4 -1 7 3 7 8 0 5 3 9 8 8 12 -5 222 103 222 113 0 6 5 7 10 4 6 -3
10 -1 10 4 0 6 6 10 13 8 6 -1 11 3 10 10 -2 7 3 10 11 7 7 -3 19 2 26 11 7 8
17 15 22 15 13 0 202 130 206 142 2 4 9 8 16 8 6 0 19 8 27 18 9 9 33 31 54
47 22 17 51 41 67 55 15 14 50 45 77 69 28 24 48 48 45 53 -3 5 0 7 8 6 7 -2
12 3 10 10 -1 8 1 11 6 8 12 -7 54 38 45 48 -5 4 -3 6 3 4 6 -2 30 16 53 39
22 24 39 43 36 43 -3 0 9 15 27 33 18 17 47 50 63 71 17 21 37 48 46 60 16 19
15 24 -13 81 -17 33 -36 63 -42 67 -6 4 -7 8 -3 8 9 0 -44 103 -56 108 -4 2
-5 7 -2 12 3 5 -2 16 -11 24 -8 9 -12 16 -9 16 4 0 -7 24 -23 54 -17 30 -28
57 -25 60 4 3 2 6 -3 6 -6 0 -16 16 -23 35 -7 19 -17 33 -22 30 -5 -3 -6 0 -3
8 3 8 -2 22 -11 30 -9 9 -15 19 -14 22 3 12 -24 65 -33 65 -5 0 -8 6 -6 13 2
14 -60 139 -74 148 -5 3 -8 8 -6 10 5 8 -35 89 -44 89 -5 0 -6 4 -3 10 3 5 1
10 -4 10 -6 0 -10 4 -8 8 4 16 -46 111 -56 105 -6 -3 -7 -1 -3 5 8 14 -31 95
-43 88 -4 -3 -6 5 -4 17 3 13 -4 31 -17 45 -11 12 -18 22 -15 22 8 0 -26 64
-39 72 -6 4 -8 8 -4 8 10 0 -82 182 -96 192 -6 4 -8 8 -3 8 4 0 -6 27 -23 60
-17 34 -35 58 -40 55 -5 -3 -12 -1 -15 5 -4 6 -3 10 2 9 22 -4 21 4 -2 41 -14
22 -25 44 -25 50 0 5 -4 10 -10 10 -5 0 -10 9 -10 20 0 12 -7 32 -16 45 -9 14
-13 25 -9 25 4 0 1 8 -6 17 -9 11 -10 14 -2 9 9 -5 19 6 30 31 10 21 22 41 27
44 5 4 6 14 3 23 -4 9 -2 16 3 16 13 0 62 101 56 116 -3 9 1 11 11 7 10 -4 14
-2 9 5 -3 6 -1 14 5 17 5 4 8 14 5 22 -3 8 -2 12 3 9 7 -5 36 51 42 82 1 4 7
12 14 17 7 6 18 26 25 45 8 19 16 37 19 40 6 5 54 101 56 110 0 3 4 11 8 17 5
7 5 13 0 13 -4 0 -3 4 3 8 6 4 21 26 33 50 19 37 20 46 9 60 -11 15 -11 15 3
4 14 -11 20 -4 43 48 15 32 31 62 35 65 5 2 12 17 16 32 3 15 10 30 13 33 4 3
22 37 41 75 94 196 157 320 164 323 4 2 5 8 1 13 -3 5 -1 9 3 9 9 0 33 57 32
74 0 5 4 12 9 15 12 8 55 91 46 91 -3 0 2 7 10 16 9 8 16 21 16 29 0 7 5 15
11 17 6 2 12 15 12 30 1 14 4 25 6 23 3 -4 71 120 71 130 0 3 -7 5 -16 5 -8 0
-12 4 -9 10 3 5 -3 15 -15 22 -11 7 -20 16 -20 20 0 17 -90 119 -100 113 -4
-3 -7 3 -6 13 0 10 -6 16 -16 16 -10 -1 -16 2 -13 5 7 12 -25 52 -36 45 -5 -3
-8 -1 -7 4 2 5 -13 26 -33 45 -20 20 -34 38 -31 41 3 3 -2 6 -10 6 -9 0 -19 7
-22 16 -3 8 -11 12 -17 8 -7 -4 -9 -3 -6 3 4 6 -14 28 -40 49 -26 22 -52 45
-59 52 -7 6 -18 12 -24 12 -6 0 -8 5 -5 10 3 6 -4 10 -16 10 -12 0 -20 3 -16
6 6 7 -16 34 -28 34 -4 0 -12 6 -19 13 -8 6 -24 19 -36 27 -13 8 -36 25 -51
38 -16 13 -34 20 -40 16 -7 -4 -9 -3 -6 3 6 10 -93 83 -113 83 -5 0 -10 3 -10
8 0 9 -62 37 -75 33 -5 -1 -7 1 -2 5 6 7 -64 53 -88 57 -5 1 -16 8 -23 15 -8
7 -18 10 -23 7 -5 -4 -9 -2 -9 3 0 11 -57 36 -77 35 -7 0 -10 3 -7 8 3 5 -1 9
-9 9 -9 0 -32 9 -54 20 -60 31 -195 80 -204 74 -5 -3 -9 -1 -9 5 0 9 -69 32
-200 67 -30 8 -71 20 -90 26 -25 8 -35 8 -38 -1 -2 -7 -9 -5 -19 5 -9 8 -24
13 -34 11 -11 -3 -19 -1 -19 5 0 6 -11 8 -25 6 -14 -3 -25 -1 -25 4 0 5 -6 8
-12 5 -7 -2 -25 0 -40 4 -19 5 -28 4 -28 -4 0 -9 -2 -9 -8 0 -7 11 -41 18
-137 29 -51 5 -571 14 -576 10z m796 -76 c-3 -5 -12 -10 -18 -10 -7 0 -6 4 3
10 19 12 23 12 15 0z m913 -325 c-3 -3 -9 2 -12 12 -6 14 -5 15 5 6 7 -7 10
-15 7 -18z m-843 -24 c3 -5 2 -12 -3 -15 -5 -3 -9 1 -9 9 0 17 3 19 12 6z m5
-365 c0 -3 -4 -8 -10 -11 -5 -3 -10 -1 -10 4 0 6 5 11 10 11 6 0 10 -2 10 -4z
m194 -164 c3 -5 -1 -9 -9 -9 -8 0 -12 4 -9 9 3 4 7 8 9 8 2 0 6 -4 9 -8z
m1411 -242 c-3 -5 -12 -10 -18 -10 -7 0 -6 4 3 10 19 12 23 12 15 0z m-334
-93 c-10 -9 -11 -8 -5 6 3 10 9 15 12 12 3 -3 0 -11 -7 -18z m-551 -2101 c0
-2 -7 -7 -16 -10 -8 -3 -12 -2 -9 4 6 10 25 14 25 6z m-480 -960 c0 -2 -7 -7
-16 -10 -8 -3 -12 -2 -9 4 6 10 25 14 25 6z m-115 -246 c3 -6 -1 -7 -9 -4 -18
7 -21 14 -7 14 6 0 13 -4 16 -10z m-525 -1034 c0 -2 -7 -7 -16 -10 -8 -3 -12
-2 -9 4 6 10 25 14 25 6z m90 -242 c0 -8 -19 -13 -24 -6 -3 5 1 9 9 9 8 0 15
-2 15 -3z"/>
</g>
</svg>
